<svg width="48" height="48" viewBox="0 0 48 48" fill="none" xmlns="http://www.w3.org/2000/svg">
<path d="M24 34.6286C27.7871 34.6286 30.8571 31.5585 30.8571 27.7714C30.8571 23.9844 27.7871 20.9143 24 20.9143C20.2129 20.9143 17.1428 23.9844 17.1428 27.7714C17.1428 31.5585 20.2129 34.6286 24 34.6286Z" stroke="#C97D7D" stroke-width="2.8" stroke-miterlimit="10" stroke-linecap="round" stroke-linejoin="round"/>
<path d="M21.3257 27.9427L22.44 29.057C22.7657 29.3827 23.2971 29.3827 23.6228 29.0741L26.6743 26.2627" stroke="#C97D7D" stroke-width="2.8" stroke-linecap="round" stroke-linejoin="round"/>
<path d="M17.1428 41.1427H30.8571C37.7485 41.1427 38.9828 38.3827 39.3428 35.0227L40.6285 21.3084C41.0914 17.1255 39.8914 13.7141 32.5714 13.7141H15.4285C8.10854 13.7141 6.90854 17.1255 7.37139 21.3084L8.65711 35.0227C9.01711 38.3827 10.2514 41.1427 17.1428 41.1427Z" stroke="#C97D7D" stroke-width="2.8" stroke-miterlimit="10" stroke-linecap="round" stroke-linejoin="round"/>
<path d="M17.1428 13.7141V12.3426C17.1428 9.30836 17.1428 6.85693 22.6285 6.85693H25.3714C30.8571 6.85693 30.8571 9.30836 30.8571 12.3426V13.7141" stroke="#C97D7D" stroke-width="2.8" stroke-miterlimit="10" stroke-linecap="round" stroke-linejoin="round"/>
<path d="M40.5428 22.2856C37.5771 24.4456 34.2857 25.9542 30.8743 26.8114" stroke="#C97D7D" stroke-width="2.8" stroke-miterlimit="10" stroke-linecap="round" stroke-linejoin="round"/>
<path d="M7.91992 22.7485C10.7828 24.7028 13.9028 26.0914 17.1428 26.88" stroke="#C97D7D" stroke-width="2.8" stroke-miterlimit="10" stroke-linecap="round" stroke-linejoin="round"/>
</svg>
