<svg width="56" height="56" viewBox="0 0 56 56" fill="none" xmlns="http://www.w3.org/2000/svg">
<path d="M41.9999 16.7068C41.8599 16.6834 41.6966 16.6834 41.5566 16.7068C38.3366 16.5901 35.7699 13.9534 35.7699 10.6868C35.7699 7.35009 38.4532 4.66675 41.7899 4.66675C45.1266 4.66675 47.8099 7.37342 47.8099 10.6868C47.7866 13.9534 45.2199 16.5901 41.9999 16.7068Z" stroke="#BF8867" stroke-width="3.2" stroke-linecap="round" stroke-linejoin="round"/>
<path d="M39.5965 33.6935C42.7932 34.2302 46.3165 33.6702 48.7898 32.0135C52.0798 29.8202 52.0798 26.2269 48.7898 24.0335C46.2932 22.3769 42.7232 21.8169 39.5265 22.3769" stroke="#BF8867" stroke-width="3.2" stroke-linecap="round" stroke-linejoin="round"/>
<path d="M13.93 16.7068C14.07 16.6834 14.2333 16.6834 14.3733 16.7068C17.5933 16.5901 20.16 13.9534 20.16 10.6868C20.16 7.35009 17.4767 4.66675 14.14 4.66675C10.8033 4.66675 8.12 7.37342 8.12 10.6868C8.14333 13.9534 10.71 16.5901 13.93 16.7068Z" stroke="#BF8867" stroke-width="3.2" stroke-linecap="round" stroke-linejoin="round"/>
<path d="M16.3332 33.6935C13.1365 34.2302 9.6132 33.6702 7.13986 32.0135C3.84986 29.8202 3.84986 26.2269 7.13986 24.0335C9.63653 22.3769 13.2065 21.8169 16.4032 22.3769" stroke="#BF8867" stroke-width="3.2" stroke-linecap="round" stroke-linejoin="round"/>
<path d="M27.9999 34.1367C27.8599 34.1134 27.6966 34.1134 27.5566 34.1367C24.3366 34.02 21.7699 31.3834 21.7699 28.1167C21.7699 24.78 24.4532 22.0967 27.7899 22.0967C31.1266 22.0967 33.8099 24.8034 33.8099 28.1167C33.7866 31.3834 31.2199 34.0434 27.9999 34.1367Z" stroke="#BF8867" stroke-width="3.2" stroke-linecap="round" stroke-linejoin="round"/>
<path d="M21.2099 41.4866C17.9199 43.6799 17.9199 47.2733 21.2099 49.4666C24.9433 51.9633 31.0566 51.9633 34.7899 49.4666C38.0799 47.2733 38.0799 43.6799 34.7899 41.4866C31.0799 39.0133 24.9433 39.0133 21.2099 41.4866Z" stroke="#BF8867" stroke-width="3.2" stroke-linecap="round" stroke-linejoin="round"/>
</svg>
