<svg width="56" height="56" viewBox="0 0 56 56" fill="none" xmlns="http://www.w3.org/2000/svg">
<path d="M33.6932 44.45L37.2399 47.9967L44.3332 40.9033" stroke="#67ABD5" stroke-width="3.5" stroke-linecap="round" stroke-linejoin="round"/>
<path d="M28.3733 25.3634C28.14 25.3401 27.86 25.3401 27.6033 25.3634C22.05 25.1767 17.64 20.6267 17.64 15.0267C17.6166 9.31008 22.26 4.66675 27.9766 4.66675C33.6933 4.66675 38.3366 9.31008 38.3366 15.0267C38.3366 20.6267 33.9033 25.1767 28.3733 25.3634Z" stroke="#67ABD5" stroke-width="3.5" stroke-linecap="round" stroke-linejoin="round"/>
<path d="M27.9768 50.8901C23.7301 50.8901 19.5068 49.8168 16.2868 47.6701C10.6401 43.8901 10.6401 37.7301 16.2868 33.9734C22.7034 29.6801 33.2268 29.6801 39.6434 33.9734" stroke="#67ABD5" stroke-width="3.5" stroke-linecap="round" stroke-linejoin="round"/>
</svg>
