<svg width="48" height="48" viewBox="0 0 48 48" fill="none" xmlns="http://www.w3.org/2000/svg">
<path d="M36.8201 36.1799L31.1801 41.8199" stroke="#B5A25A" stroke-width="2.8" stroke-linecap="round" stroke-linejoin="round"/>
<path d="M36.8201 41.8199L31.1801 36.1799" stroke="#B5A25A" stroke-width="2.8" stroke-linecap="round" stroke-linejoin="round"/>
<path d="M24.3201 21.74C24.1201 21.72 23.8801 21.72 23.6601 21.74C18.9001 21.58 15.1201 17.68 15.1201 12.88C15.1201 7.98 19.0801 4 24.0001 4C28.9001 4 32.8801 7.98 32.8801 12.88C32.8601 17.68 29.0801 21.58 24.3201 21.74Z" stroke="#B5A25A" stroke-width="2.8" stroke-linecap="round" stroke-linejoin="round"/>
<path d="M24.0001 43.6201C20.3601 43.6201 16.7401 42.7001 13.9801 40.8601C9.1401 37.6201 9.1401 32.3401 13.9801 29.1201C19.4801 25.4401 28.5001 25.4401 34.0001 29.1201" stroke="#B5A25A" stroke-width="2.8" stroke-linecap="round" stroke-linejoin="round"/>
</svg>
