<svg width="57" height="57" viewBox="0 0 57 57" fill="none" xmlns="http://www.w3.org/2000/svg">
<path d="M21.4096 25.9384C21.1763 25.915 20.8963 25.915 20.6396 25.9384C15.0863 25.7517 10.6763 21.2017 10.6763 15.6017C10.6763 9.88503 15.2963 5.2417 21.0363 5.2417C26.7529 5.2417 31.3963 9.88503 31.3963 15.6017C31.3729 21.2017 26.9629 25.7517 21.4096 25.9384Z" stroke="#738CC7" stroke-width="3.2" stroke-linecap="round" stroke-linejoin="round"/>
<path d="M38.3262 9.9082C42.8528 9.9082 46.4928 13.5715 46.4928 18.0749C46.4928 22.4849 42.9928 26.0782 38.6295 26.2415C38.4428 26.2182 38.2328 26.2182 38.0228 26.2415" stroke="#738CC7" stroke-width="3.2" stroke-linecap="round" stroke-linejoin="round"/>
<path d="M9.74269 34.5482C4.09602 38.3282 4.09602 44.4882 9.74269 48.2449C16.1594 52.5382 26.6827 52.5382 33.0994 48.2449C38.746 44.4649 38.746 38.3049 33.0994 34.5482C26.706 30.2782 16.1827 30.2782 9.74269 34.5482Z" stroke="#738CC7" stroke-width="3.2" stroke-linecap="round" stroke-linejoin="round"/>
<path d="M42.8293 47.2417C44.5093 46.8917 46.096 46.215 47.4027 45.2117C51.0427 42.4817 51.0427 37.9784 47.4027 35.2484C46.1193 34.2684 44.556 33.615 42.8993 33.2417" stroke="#738CC7" stroke-width="3.2" stroke-linecap="round" stroke-linejoin="round"/>
</svg>
