<svg width="9" height="12" viewBox="0 0 9 12" fill="none" xmlns="http://www.w3.org/2000/svg">
<path d="M0.147727 12V0.363636H4.60227C5.44318 0.363636 6.14205 0.496212 6.69886 0.761363C7.25947 1.02273 7.67803 1.38068 7.95455 1.83523C8.23485 2.28977 8.375 2.80492 8.375 3.38068C8.375 3.85417 8.28409 4.25947 8.10227 4.59659C7.92045 4.92992 7.67614 5.20076 7.36932 5.40909C7.0625 5.61742 6.7197 5.76705 6.34091 5.85795V5.97159C6.75379 5.99432 7.14962 6.12121 7.52841 6.35227C7.91098 6.57955 8.22348 6.90151 8.46591 7.31818C8.70833 7.73485 8.82955 8.23864 8.82955 8.82955C8.82955 9.43182 8.68371 9.97348 8.39205 10.4545C8.10038 10.9318 7.66099 11.3087 7.07386 11.5852C6.48674 11.8617 5.74811 12 4.85795 12H0.147727ZM2.25568 10.2386H4.52273C5.28788 10.2386 5.83902 10.0928 6.17614 9.80114C6.51705 9.50568 6.6875 9.12689 6.6875 8.66477C6.6875 8.32008 6.60227 8.00947 6.43182 7.73295C6.26136 7.45265 6.01894 7.23295 5.70455 7.07386C5.39015 6.91098 5.01515 6.82955 4.57955 6.82955H2.25568V10.2386ZM2.25568 5.3125H4.34091C4.70455 5.3125 5.0322 5.24621 5.32386 5.11364C5.61553 4.97727 5.8447 4.78598 6.01136 4.53977C6.18182 4.28977 6.26705 3.99432 6.26705 3.65341C6.26705 3.20265 6.10795 2.83144 5.78977 2.53977C5.47538 2.24811 5.00758 2.10227 4.38636 2.10227H2.25568V5.3125Z" fill="#333843"/>
</svg>
