<svg width="12" height="13" viewBox="0 0 12 13" fill="none" xmlns="http://www.w3.org/2000/svg">
<path d="M1.73438 1.20312H0.578125V0.4375H4.42969V1.20312H3.375V7.35938C3.375 8.35938 3.42188 9.08854 3.51562 9.54688C3.61458 10.0052 3.79948 10.3828 4.07031 10.6797C4.57552 11.237 5.24219 11.5156 6.07031 11.5156C6.86719 11.5156 7.52344 11.2552 8.03906 10.7344C8.52865 10.2448 8.77344 9.23438 8.77344 7.70312V1.20312H7.61719V0.4375H11.0859V1.20312H9.92969V7.28125C9.92969 8.35417 9.86979 9.13542 9.75 9.625C9.63542 10.1146 9.39583 10.5859 9.03125 11.0391C8.35938 11.8724 7.32031 12.2891 5.91406 12.2891C4.47135 12.2891 3.41406 11.9219 2.74219 11.1875C2.07031 10.4479 1.73438 9.28385 1.73438 7.69531V1.20312Z" fill="#333843"/>
<path d="M0 13.9531H11.6641V14.7344H0V13.9531Z" fill="#333843"/>
</svg>
